<?xml version="1.0" standalone="no"?>
<!DOCTYPE svg PUBLIC "-//W3C//DTD SVG 1.1//EN" "http://www.w3.org/Graphics/SVG/1.1/DTD/svg11.dtd">
<svg xmlns="http://www.w3.org/2000/svg" xmlns:xlink="http://www.w3.org/1999/xlink" version="1.1" id="Capa_1" x="0px" y="0px" viewBox="0 0 247 54.5" style="enable-background:new 0 0 247 54.5;" xml:space="preserve" width="247" height="54.5">
<style type="text/css">
	.st0{fill-rule:evenodd;clip-rule:evenodd;fill:#FF6D00;}
	.st1{fill:#FF6D00;}
</style>
<g id="Page-1">
	<g id="Nav---Side-bar-Mobile" transform="translate(-59.000000, -90.000000)">
		<g id="_x2F_Components_x2F_Mobile_x2F__x40_Header-w-achievements" transform="translate(0.000000, 61.000000)">
			<g id="Group-2" transform="translate(59.000000, 29.000000)">
				<path id="Combined-Shape" class="st0" d="M127.7,13.4c8.7,0,15.5,6.2,15.5,15.1c0,8.8-6.7,15.1-15.5,15.1      c-8.7,0-15.5-6.3-15.5-15.1C112.2,19.7,119,13.4,127.7,13.4z M127.7,21.4c-3.3,0-6.6,2.2-6.6,7c0,4.8,3.2,7.1,6.6,7.1      c3.4,0,6.6-2.3,6.6-7.1C134.2,23.7,131.1,21.4,127.7,21.4z"/>
				<path id="Combined-Shape_00000105420299143897024930000015260524831901154227_" class="st0" d="M91.7,13.8      c4.7,0,7.3,2.1,8.1,3.6v-3h8.5v24.9c0,8.2-4.7,15.3-15.6,15.3c-8.4,0-13.7-5-14.5-10.1l7.8-2.2c0.6,2.8,2.9,4.8,6.3,4.8      c4.5,0,7.2-2.1,7.2-7.3v-1.3c-1.1,1.5-3.6,3.2-7.8,3.2c-7.7,0-13.5-6-13.5-13.9C78.2,20.2,83.8,13.8,91.7,13.8z M93.4,21.4      c-3.3,0-6.3,2.4-6.3,6.3s2.7,6.3,6.3,6.3c3.6,0,6.2-2.4,6.2-6.3S96.7,21.4,93.4,21.4z"/>
				<path id="pie" class="st1" d="M159.3,52.9V39.9c1.3,1.6,4.1,2.9,7.9,2.9c8.1,0,13.8-6.2,13.8-14.9c0-8.5-5.1-14.8-13.5-14.8      c-4.1,0-7.3,1.8-8.5,3.6v-2.9h-8.6v39.2H159.3z M165.7,35c-3.4,0-6.5-2.4-6.5-7.1c0-4.7,3.1-7,6.5-7c3.5,0,6.6,2.3,6.6,7      S169.2,35,165.7,35z M191.1,10.2c2.9,0,5.2-2.3,5.2-5.1S194,0,191.1,0c-2.8,0-5.1,2.3-5.1,5.1S188.3,10.2,191.1,10.2z       M195.5,42.1V13.7h-8.9v28.3H195.5z M216.3,42.9c7.3,0,12-4.1,13.4-9l-7.4-2.1c-0.8,2.2-2.6,3.7-5.8,3.7c-3.4,0-6.4-2.3-6.6-5.5      H230c0.1-0.2,0.2-1.5,0.2-2.7c0-9.1-5.5-14.5-14.5-14.5c-7.5,0-14.5,5.8-14.5,14.9C201.2,37.4,208.3,42.9,216.3,42.9z       M221.6,24.5H210c0.2-2.1,2-4.8,5.8-4.8C220,19.7,221.5,22.4,221.6,24.5z"/>
				<path id="Path" class="st0" d="M241,43.2c-3.3,0-6-2.8-6-5.9c0-3.2,2.7-5.8,6-5.8c3.3,0,6,2.6,6,5.8      C247,40.5,244.2,43.2,241,43.2L241,43.2z"/>
				<path id="Path_00000052784429781501748600000000440933411565648308_" class="st0" d="M46.7,14.3h8.6v3.3c1.6-2.7,5.2-4,8.1-4      c7.3,0,10.6,5.1,10.6,11.3v17.9h-8.9V26.4c0-2.8-1.5-4.9-4.7-4.9c-2.9,0-4.8,2.1-4.8,5v16.3h-8.9V14.3z"/>
				<polygon id="Path_00000057127117054289676690000017864011156035743370_" class="st0" points="31.3,42.7 40.2,42.7 40.2,14.3       31.3,14.3     "/>
				<path id="Path_00000020377843163531662120000015053524148118666404_" class="st0" d="M35.7,0.5c2.9,0,5.3,2.3,5.3,5.1      c0,2.8-2.3,5.1-5.3,5.1c-2.8,0-5.2-2.3-5.2-5.1C30.5,2.8,32.9,0.5,35.7,0.5L35.7,0.5z"/>
				<polygon id="Path_00000026156552948027653220000009220793551494261644_" class="st0" points="0,42.7 0,2.1 9.3,2.1 9.3,34.1       27.2,34.1 27.2,42.7     "/>
				<path id="Path_00000181809945964357883800000000253737566806760326_" class="st0" d="M49.9,9.5c0-4.9,2.9-7.3,6.6-7.3      c1.8,0,3.2,0.6,4.5,1.3c1.2,0.7,2.2,1.3,3.2,1.3c1.3,0,2-0.9,2.1-2.5h5v1.1c0,5-2.8,7.4-6.6,7.4c-1.8,0-3.1-0.6-4.5-1.3      C59,9,58,8.4,56.9,8.4c-1.2,0-1.9,0.7-2,2.5h-5V9.5z"/>
				<path id="Path_00000095300271584315985010000007274577017244687531_" class="st0" d="M121.2,2.1c2.5,0,4.5,1.9,4.5,4.4      c0,2.5-2,4.4-4.5,4.4c-2.5,0-4.5-1.9-4.5-4.4C116.7,4.1,118.6,2.1,121.2,2.1L121.2,2.1z"/>
				<path id="Path_00000036971453766458389650000005985744027673287054_" class="st0" d="M134.1,2.1c2.5,0,4.5,1.9,4.5,4.4      c0,2.5-2,4.4-4.5,4.4c-2.5,0-4.5-1.9-4.5-4.4C129.6,4.1,131.6,2.1,134.1,2.1L134.1,2.1z"/>
			</g>
		</g>
	</g>
</g>
</svg>